<svg id="visual" viewBox="0 0 900 600" width="900" height="600" xmlns="http://www.w3.org/2000/svg" xmlns:xlink="http://www.w3.org/1999/xlink" version="1.1"><rect x="0" y="0" width="900" height="600" fill="#ffffff"></rect><defs><linearGradient id="grad1_0" x1="33.3%" y1="0%" x2="100%" y2="100%"><stop offset="20%" stop-color="#3fb72f" stop-opacity="1"></stop><stop offset="80%" stop-color="#3fb72f" stop-opacity="1"></stop></linearGradient></defs><defs><linearGradient id="grad1_1" x1="33.3%" y1="0%" x2="100%" y2="100%"><stop offset="20%" stop-color="#3fb72f" stop-opacity="1"></stop><stop offset="80%" stop-color="#a9dc99" stop-opacity="1"></stop></linearGradient></defs><defs><linearGradient id="grad1_2" x1="33.3%" y1="0%" x2="100%" y2="100%"><stop offset="20%" stop-color="#ffffff" stop-opacity="1"></stop><stop offset="80%" stop-color="#a9dc99" stop-opacity="1"></stop></linearGradient></defs><defs><linearGradient id="grad2_0" x1="0%" y1="0%" x2="66.7%" y2="100%"><stop offset="20%" stop-color="#3fb72f" stop-opacity="1"></stop><stop offset="80%" stop-color="#3fb72f" stop-opacity="1"></stop></linearGradient></defs><defs><linearGradient id="grad2_1" x1="0%" y1="0%" x2="66.7%" y2="100%"><stop offset="20%" stop-color="#a9dc99" stop-opacity="1"></stop><stop offset="80%" stop-color="#3fb72f" stop-opacity="1"></stop></linearGradient></defs><defs><linearGradient id="grad2_2" x1="0%" y1="0%" x2="66.7%" y2="100%"><stop offset="20%" stop-color="#a9dc99" stop-opacity="1"></stop><stop offset="80%" stop-color="#ffffff" stop-opacity="1"></stop></linearGradient></defs><g transform="translate(900, 0)"><path d="M0 486.7C-82.3 470 -164.7 453.3 -239.5 414.8C-314.3 376.4 -381.6 316.1 -421.5 243.4C-461.5 170.6 -474.1 85.3 -486.7 0L0 0Z" fill="#d5eecb"></path><path d="M0 324.5C-54.9 313.3 -109.8 302.2 -159.7 276.6C-209.5 250.9 -254.4 210.8 -281 162.2C-307.7 113.7 -316.1 56.9 -324.5 0L0 0Z" fill="#7aca66"></path><path d="M0 162.2C-27.4 156.7 -54.9 151.1 -79.8 138.3C-104.8 125.5 -127.2 105.4 -140.5 81.1C-153.8 56.9 -158 28.4 -162.2 0L0 0Z" fill="#3fb72f"></path></g><g transform="translate(0, 600)"><path d="M0 -486.7C94.1 -479.2 188.2 -471.6 243.4 -421.5C298.6 -371.5 314.9 -278.8 349 -201.5C383.1 -124.2 434.9 -62.1 486.7 0L0 0Z" fill="#d5eecb"></path><path d="M0 -324.5C62.7 -319.5 125.4 -314.4 162.2 -281C199.1 -247.6 209.9 -185.9 232.7 -134.3C255.4 -82.8 289.9 -41.4 324.5 0L0 0Z" fill="#7aca66"></path><path d="M0 -162.2C31.4 -159.7 62.7 -157.2 81.1 -140.5C99.5 -123.8 105 -92.9 116.3 -67.2C127.7 -41.4 145 -20.7 162.2 0L0 0Z" fill="#3fb72f"></path></g></svg>